<svg xmlns="http://www.w3.org/2000/svg" viewBox="0 0 859.04 222.35">
  <defs>
    <style>
      .cls-1 {
        fill: #1a1a1a;
      }
    </style>
  </defs>
  <g id="Layer_2" data-name="Layer 2">
    <g id="Layer_1-2" data-name="Layer 1">
      <g>
        <path class="cls-1" d="M58.51,0H119l59.26,180.77h-49.8L117,144.67H60.26l-11.21,36.1H0Zm47.81,105.32L88.39,46.56,71.21,105.32Z"/>
        <path class="cls-1" d="M185.26,135.2V50.79h47.31v75.45c0,8.71,3.73,16.68,12.94,16.68,11.21,0,15.94-9.71,15.94-18.67V50.79h47.31v130H264.44l-1.75-17.68c-7.22,12.2-18.92,20.67-37.84,20.67C205.43,183.76,185.26,168.07,185.26,135.2Z"/>
        <path d="M335.15,0H384.2V137H448v43.82H335.15Z"/>
        <path d="M497.49,183.76c-25.14,0-40.33-16.44-40.33-37.35,0-21.66,17.43-36.6,42.58-41.83,7.22-1.25,21.66-3.74,29.38-4.24-1-8.46-10.21-13.19-21.17-13.19-14.94,0-29.88,4.73-47.8,20.91l1.74-40.83c13.2-13.2,29.63-19.42,50.54-19.42,33.62,0,59,17.92,59,52.29v80.67H530.61l-1-14.19C521.65,178.53,510.69,183.76,497.49,183.76Zm13.45-32.62c5.48,0,18.18-4,18.18-15.94V126l-14.44,4c-7.72,2.25-14.45,4.49-14.45,12C500.23,148.9,506.21,151.14,510.94,151.14Z"/>
        <path d="M637.43,161.35l-1.74,19.42H592.86V0h45.81V64.49c7.47-8.72,18.18-16.68,38.85-16.68,24.9,0,51.79,22.66,51.79,64.24,0,44.82-23.9,71.71-54.78,71.71C652.37,183.76,643.41,171.81,637.43,161.35ZM681,116.53c0-19.67-9-28.64-21.91-28.64-11.2,0-20.42,9-20.42,26.4v3c0,18.92,9.22,27.88,20.42,27.88C672,145.16,681,136.2,681,116.53Z"/>
        <path d="M734.79,183.76H859v38.59H734.79Z"/>
      </g>
    </g>
  </g>
</svg>
