<?xml version="1.0" encoding="UTF-8"?>
<svg id="Layer_2" xmlns="http://www.w3.org/2000/svg" viewBox="0 0 1168.19 186">
  <defs>
    <style>
      .cls-1 {
        fill: #c3282d;
      }
    </style>
  </defs>
  <g id="Layer_1-2" data-name="Layer_1">
    <g>
      <g>
        <path d="M2,131l-.4-44.8c11.8,16.6,32,29,50.8,29,10.4,0,18-4,18-10.8,0-9.8-17.4-12.4-33.6-18.6C16.2,78,0,64.6,0,43.8,0,19,23.8,0,56.4,0c21,0,40.8,8,49,14.8l2.4,41c-15.8-13.8-34.4-21.4-50.6-21.4-10,0-17,3.6-17,9.2,0,7.4,9.4,9.6,30.6,16.8,22.6,7.2,41.2,19.8,41.2,42.8,0,25.8-24.6,46.8-58.2,46.8-21.6,0-43.8-8.8-51.8-19Z"/>
        <path d="M160.6,144l-43.6-100.8h42.4l19.8,56.4,18.6-56.4h41.2l-55.4,140.4h-40.8l17.8-39.6Z"/>
        <path d="M301.8,74.2c-10,0-15.4,7.6-15.4,16.4v57h-40V43.2h37.6l1.4,14.8c6-10.2,16.2-17.2,32.2-17.2,18.6,0,36.4,13,36.4,40v66.8h-40v-58.6c0-7.8-3.8-14.8-12.2-14.8Z"/>
        <path d="M364.6,95.4c0-30.4,25.4-54.6,60.8-54.6,18,0,29.2,6,33.8,10l1,38c-8-7.4-18.2-13-30.6-13-13.2,0-24.4,7.4-24.4,19.6s10.8,19.8,25.2,19.8c13,0,24-6,29.8-12l-6,39.8c-6,3.6-15.4,7-28.6,7-35.4,0-61-24.2-61-54.6Z"/>
        <path d="M475.19,43.2h35.6l3,16.2c5.4-10,14.8-17.6,28-17.6,4.8,0,9.2.4,12.8,2l4.6,40.4c-7-3.6-15-5.4-22.2-5.4-15.4,0-22,9.4-22,21.4v47.4h-39.8V43.2Z"/>
        <path d="M600.79,150c-21.8,0-35.2-12.6-35.2-29.8,0-18.4,17.6-29.8,38.8-33.6,5.2-1,18.2-2.6,25.6-3.4-1.4-6.8-8.8-10.4-19-10.4-14,0-27.4,4-42.8,16.8l2-33.4c10.8-10.2,26-15.4,44.6-15.4,29.6,0,51.2,14.6,51.2,43v63.8h-34.6l-.8-11.8c-7,9.6-17.4,14.2-29.8,14.2ZM612.19,123.8c6.6,0,18-3.8,18-13.8v-6.2l-15.4,3.4c-7.4,1.8-12.4,3.8-12.4,9.4,0,5.2,5,7.2,9.8,7.2Z"/>
        <path d="M682.4,131l-.4-44.8c11.8,16.6,32,29,50.8,29,10.4,0,18-4,18-10.8,0-9.8-17.4-12.4-33.6-18.6-20.6-7.8-36.8-21.2-36.8-42,0-24.8,23.8-43.8,56.4-43.8,21,0,40.8,8,49,14.8l2.4,41c-15.8-13.8-34.4-21.4-50.6-21.4-10,0-17,3.6-17,9.2,0,7.4,9.4,9.6,30.6,16.8,22.6,7.2,41.2,19.8,41.2,42.8,0,25.8-24.6,46.8-58.2,46.8-21.6,0-43.8-8.8-51.8-19Z"/>
        <path d="M802.59,95.4c0-30,23.4-54.6,61.2-54.6s61.2,24.6,61.2,54.6-23.2,54.6-61.2,54.6-61.2-24.6-61.2-54.6ZM883.99,95.4c0-14.4-8.8-22-20.2-22s-20,7.6-20,22,8.8,22.2,20,22.2,20.2-7.6,20.2-22.2Z"/>
        <path d="M992.19,74.2c-10,0-15.4,7.6-15.4,16.4v57h-40V43.2h37.6l1.4,14.8c6-10.2,16.2-17.2,32.2-17.2,18.6,0,36.4,13,36.4,40v66.8h-40v-58.6c0-7.8-3.8-14.8-12.2-14.8Z"/>
        <path d="M1066.59,175v-35.2c10.4,10.6,25,15.6,39.2,15.6,15.2,0,25.6-6.2,25.6-20.8v-3.4c-6.6,7-14.8,11-27.8,11-28,0-48-21-48-50,0-32.2,26-51.4,49.2-51.4,12.8,0,23,4.6,29,12l1.4-9.6h33v89.2c0,34.4-24.2,53.6-59.8,53.6-15,0-30-3.6-41.8-11ZM1132.59,93.2v-1.6c0-11.4-8.4-18.6-19-18.6-9.4,0-18.2,7.2-18.2,20.2s8.8,20,18.2,20c10.4,0,19-6.2,19-20Z"/>
      </g>
      <g>
        <path class="cls-1" d="M2,131l-.4-44.8c11.8,16.6,32,29,50.8,29,10.4,0,18-4,18-10.8,0-9.8-17.4-12.4-33.6-18.6C16.2,78,0,64.6,0,43.8,0,19,23.8,0,56.4,0c21,0,40.8,8,49,14.8l2.4,41c-15.8-13.8-34.4-21.4-50.6-21.4-10,0-17,3.6-17,9.2,0,7.4,9.4,9.6,30.6,16.8,22.6,7.2,41.2,19.8,41.2,42.8,0,25.8-24.6,46.8-58.2,46.8-21.6,0-43.8-8.8-51.8-19Z"/>
        <path class="cls-1" d="M160.6,144l-43.6-100.8h42.4l19.8,56.4,18.6-56.4h41.2l-55.4,140.4h-40.8l17.8-39.6Z"/>
        <path class="cls-1" d="M301.8,74.2c-10,0-15.4,7.6-15.4,16.4v57h-40V43.2h37.6l1.4,14.8c6-10.2,16.2-17.2,32.2-17.2,18.6,0,36.4,13,36.4,40v66.8h-40v-58.6c0-7.8-3.8-14.8-12.2-14.8Z"/>
        <path class="cls-1" d="M364.6,95.4c0-30.4,25.4-54.6,60.8-54.6,18,0,29.2,6,33.8,10l1,38c-8-7.4-18.2-13-30.6-13-13.2,0-24.4,7.4-24.4,19.6s10.8,19.8,25.2,19.8c13,0,24-6,29.8-12l-6,39.8c-6,3.6-15.4,7-28.6,7-35.4,0-61-24.2-61-54.6Z"/>
        <path class="cls-1" d="M475.19,43.2h35.6l3,16.2c5.4-10,14.8-17.6,28-17.6,4.8,0,9.2.4,12.8,2l4.6,40.4c-7-3.6-15-5.4-22.2-5.4-15.4,0-22,9.4-22,21.4v47.4h-39.8V43.2Z"/>
        <path class="cls-1" d="M600.79,150c-21.8,0-35.2-12.6-35.2-29.8,0-18.4,17.6-29.8,38.8-33.6,5.2-1,18.2-2.6,25.6-3.4-1.4-6.8-8.8-10.4-19-10.4-14,0-27.4,4-42.8,16.8l2-33.4c10.8-10.2,26-15.4,44.6-15.4,29.6,0,51.2,14.6,51.2,43v63.8h-34.6l-.8-11.8c-7,9.6-17.4,14.2-29.8,14.2ZM612.19,123.8c6.6,0,18-3.8,18-13.8v-6.2l-15.4,3.4c-7.4,1.8-12.4,3.8-12.4,9.4,0,5.2,5,7.2,9.8,7.2Z"/>
        <path d="M682.4,131l-.4-44.8c11.8,16.6,32,29,50.8,29,10.4,0,18-4,18-10.8,0-9.8-17.4-12.4-33.6-18.6-20.6-7.8-36.8-21.2-36.8-42,0-24.8,23.8-43.8,56.4-43.8,21,0,40.8,8,49,14.8l2.4,41c-15.8-13.8-34.4-21.4-50.6-21.4-10,0-17,3.6-17,9.2,0,7.4,9.4,9.6,30.6,16.8,22.6,7.2,41.2,19.8,41.2,42.8,0,25.8-24.6,46.8-58.2,46.8-21.6,0-43.8-8.8-51.8-19Z"/>
        <path d="M802.59,95.4c0-30,23.4-54.6,61.2-54.6s61.2,24.6,61.2,54.6-23.2,54.6-61.2,54.6-61.2-24.6-61.2-54.6ZM883.99,95.4c0-14.4-8.8-22-20.2-22s-20,7.6-20,22,8.8,22.2,20,22.2,20.2-7.6,20.2-22.2Z"/>
        <path d="M992.19,74.2c-10,0-15.4,7.6-15.4,16.4v57h-40V43.2h37.6l1.4,14.8c6-10.2,16.2-17.2,32.2-17.2,18.6,0,36.4,13,36.4,40v66.8h-40v-58.6c0-7.8-3.8-14.8-12.2-14.8Z"/>
        <path d="M1066.59,175v-35.2c10.4,10.6,25,15.6,39.2,15.6,15.2,0,25.6-6.2,25.6-20.8v-3.4c-6.6,7-14.8,11-27.8,11-28,0-48-21-48-50,0-32.2,26-51.4,49.2-51.4,12.8,0,23,4.6,29,12l1.4-9.6h33v89.2c0,34.4-24.2,53.6-59.8,53.6-15,0-30-3.6-41.8-11ZM1132.59,93.2v-1.6c0-11.4-8.4-18.6-19-18.6-9.4,0-18.2,7.2-18.2,20.2s8.8,20,18.2,20c10.4,0,19-6.2,19-20Z"/>
      </g>
    </g>
  </g>
</svg>