<svg width="196" height="33" viewBox="0 0 196 33" fill="none" xmlns="http://www.w3.org/2000/svg">
<path d="M10.01 25.6205C8.25995 25.6205 6.68495 25.3172 5.28495 24.7105C3.90828 24.1039 2.75328 23.2522 1.81995 22.1555C0.909951 21.0355 0.303285 19.7405 -4.87864e-05 18.2705L4.30495 17.1505L4.68995 17.2205C5.01662 18.0372 5.44828 18.7489 5.98495 19.3555C6.52162 19.9622 7.15162 20.4289 7.87495 20.7555C8.59829 21.0822 9.37995 21.2455 10.22 21.2455C11.0366 21.2455 11.7483 21.1172 12.355 20.8605C12.985 20.6039 13.475 20.2539 13.825 19.8105C14.1983 19.3439 14.385 18.8189 14.385 18.2355C14.385 17.5589 14.1516 16.9989 13.685 16.5555C13.2416 16.1122 12.5183 15.7622 11.515 15.5055L7.31495 14.4205C5.14495 13.8605 3.48828 12.9389 2.34495 11.6555C1.20162 10.3722 0.629951 8.87888 0.629951 7.17555C0.629951 5.75221 0.991618 4.50388 1.71495 3.43055C2.43828 2.35721 3.44162 1.51721 4.72495 0.910545C6.03162 0.303879 7.53662 0.000546157 9.23995 0.000546157C10.8733 0.000546157 12.3316 0.280546 13.615 0.840546C14.9216 1.40055 15.995 2.20555 16.835 3.25555C17.6983 4.28221 18.27 5.51888 18.55 6.96555L14.56 7.84055L14.175 7.77055C13.895 6.67388 13.3233 5.83388 12.46 5.25055C11.5966 4.66721 10.5116 4.37555 9.20495 4.37555C8.08495 4.37555 7.18662 4.64388 6.50995 5.18055C5.85662 5.71721 5.52995 6.37055 5.52995 7.14055C5.52995 7.84055 5.77495 8.43555 6.26495 8.92555C6.77828 9.39221 7.53662 9.75388 8.53995 10.0105L12.74 11.0955C14.91 11.6555 16.5433 12.5305 17.64 13.7205C18.7366 14.8872 19.285 16.3339 19.285 18.0605C19.285 19.5772 18.9 20.9072 18.13 22.0505C17.36 23.1939 16.275 24.0805 14.875 24.7105C13.4983 25.3172 11.8766 25.6205 10.01 25.6205ZM24.6164 32.0605V31.7805L27.4864 25.0605L29.2714 21.2805L34.9064 7.28055H39.7364V7.56055L29.4464 32.0605H24.6164ZM27.4864 25.0605L20.5214 7.56055V7.28055H25.3514L31.6164 23.6955V25.0605H27.4864ZM41.9972 25.0605V7.28055H46.3722V11.5155L45.2172 11.7605C45.6372 10.7105 46.1972 9.81221 46.8972 9.06555C47.5972 8.31888 48.4139 7.74721 49.3472 7.35055C50.2806 6.93055 51.2956 6.72055 52.3922 6.72055C53.6522 6.72055 54.7956 7.00055 55.8222 7.56055C56.8722 8.09721 57.7006 8.90221 58.3072 9.97555C58.9372 11.0489 59.2522 12.3905 59.2522 14.0005V25.0605H54.5272V15.5055C54.5272 14.5022 54.3872 13.6622 54.1072 12.9855C53.8506 12.3089 53.4656 11.7955 52.9522 11.4455C52.4389 11.0955 51.8206 10.9205 51.0972 10.9205C50.5372 10.9205 49.9189 11.0722 49.2422 11.3755C48.5656 11.6789 47.9706 12.2272 47.4572 13.0205C46.9672 13.7905 46.7222 14.9222 46.7222 16.4155V25.0605H41.9972ZM71.8312 25.6205C69.9645 25.6205 68.3195 25.2239 66.8962 24.4305C65.4962 23.6372 64.3995 22.5289 63.6062 21.1055C62.8128 19.6822 62.4162 18.0372 62.4162 16.1705C62.4162 14.3039 62.8128 12.6589 63.6062 11.2355C64.3995 9.81221 65.4962 8.70388 66.8962 7.91055C68.3195 7.11721 69.9645 6.72055 71.8312 6.72055C73.2778 6.72055 74.5612 6.95388 75.6812 7.42055C76.8245 7.86388 77.7812 8.55221 78.5512 9.48555C79.3445 10.4189 79.9512 11.5855 80.3712 12.9855L76.4862 14.0705H76.0662C75.7628 13.0905 75.2028 12.3205 74.3862 11.7605C73.5928 11.1772 72.7412 10.8855 71.8312 10.8855C70.8745 10.8855 70.0462 11.1072 69.3462 11.5505C68.6462 11.9705 68.0978 12.5772 67.7012 13.3705C67.3278 14.1405 67.1412 15.0739 67.1412 16.1705C67.1412 17.2439 67.3278 18.1772 67.7012 18.9705C68.0978 19.7639 68.6462 20.3822 69.3462 20.8255C70.0462 21.2455 70.8745 21.4555 71.8312 21.4555C72.5078 21.4555 73.1378 21.3272 73.7212 21.0705C74.3278 20.8139 74.8528 20.4522 75.2962 19.9855C75.7395 19.4955 76.0545 18.9239 76.2412 18.2705H76.6612L80.5462 19.3555C80.1262 20.7555 79.5195 21.9222 78.7262 22.8555C77.9328 23.7889 76.9645 24.4889 75.8212 24.9555C74.6778 25.3989 73.3478 25.6205 71.8312 25.6205ZM83.6964 25.0605V7.28055H88.0714V11.5155L86.9164 11.7605C87.4764 10.3605 88.3281 9.26388 89.4714 8.47055C90.6148 7.67721 91.9331 7.28055 93.4264 7.28055H95.0714V11.4455H92.7264C91.8398 11.4455 91.0698 11.6322 90.4164 12.0055C89.7864 12.3789 89.2964 12.9272 88.9464 13.6505C88.5964 14.3505 88.4214 15.1905 88.4214 16.1705V25.0605H83.6964ZM102.041 25.6205C100.827 25.6205 99.7422 25.3872 98.7855 24.9205C97.8522 24.4539 97.1172 23.8005 96.5805 22.9605C96.0439 22.1205 95.7755 21.1639 95.7755 20.0905C95.7755 18.3639 96.3589 16.9989 97.5255 15.9955C98.7155 14.9689 100.442 14.3622 102.706 14.1755L109.601 13.5805V17.3605L103.301 17.8855C102.297 17.9789 101.586 18.1889 101.166 18.5155C100.769 18.8422 100.571 19.2622 100.571 19.7755C100.571 20.2889 100.816 20.7089 101.306 21.0355C101.796 21.3389 102.414 21.4905 103.161 21.4905C103.977 21.4905 104.712 21.2805 105.366 20.8605C106.042 20.4405 106.579 19.9039 106.976 19.2505C107.372 18.5739 107.571 17.8622 107.571 17.1155V14.2105C107.571 13.2072 107.221 12.3789 106.521 11.7255C105.821 11.0722 104.934 10.7455 103.861 10.7455C102.857 10.7455 102.052 11.0022 101.446 11.5155C100.839 12.0055 100.477 12.5539 100.361 13.1605H99.9755L95.9855 12.3205C96.3355 10.7339 97.1989 9.40388 98.5755 8.33055C99.9755 7.25721 101.737 6.72055 103.861 6.72055C106.427 6.72055 108.446 7.44388 109.916 8.89055C111.409 10.3372 112.156 12.3789 112.156 15.0155V25.0605H108.061V19.8805H109.776C109.496 20.9072 108.982 21.8639 108.236 22.7505C107.512 23.6139 106.626 24.3139 105.576 24.8505C104.526 25.3639 103.347 25.6205 102.041 25.6205ZM125.127 25.6205C123.377 25.6205 121.802 25.3172 120.402 24.7105C119.025 24.1039 117.87 23.2522 116.937 22.1555C116.027 21.0355 115.42 19.7405 115.117 18.2705L119.422 17.1505L119.807 17.2205C120.134 18.0372 120.565 18.7489 121.102 19.3555C121.639 19.9622 122.269 20.4289 122.992 20.7555C123.715 21.0822 124.497 21.2455 125.337 21.2455C126.154 21.2455 126.865 21.1172 127.472 20.8605C128.102 20.6039 128.592 20.2539 128.942 19.8105C129.315 19.3439 129.502 18.8189 129.502 18.2355C129.502 17.5589 129.269 16.9989 128.802 16.5555C128.359 16.1122 127.635 15.7622 126.632 15.5055L122.432 14.4205C120.262 13.8605 118.605 12.9389 117.462 11.6555C116.319 10.3722 115.747 8.87888 115.747 7.17555C115.747 5.75221 116.109 4.50388 116.832 3.43055C117.555 2.35721 118.559 1.51721 119.842 0.910545C121.149 0.303879 122.654 0.000546157 124.357 0.000546157C125.99 0.000546157 127.449 0.280546 128.732 0.840546C130.039 1.40055 131.112 2.20555 131.952 3.25555C132.815 4.28221 133.387 5.51888 133.667 6.96555L129.677 7.84055L129.292 7.77055C129.012 6.67388 128.44 5.83388 127.577 5.25055C126.714 4.66721 125.629 4.37555 124.322 4.37555C123.202 4.37555 122.304 4.64388 121.627 5.18055C120.974 5.71721 120.647 6.37055 120.647 7.14055C120.647 7.84055 120.892 8.43555 121.382 8.92555C121.895 9.39221 122.654 9.75388 123.657 10.0105L127.857 11.0955C130.027 11.6555 131.66 12.5305 132.757 13.7205C133.854 14.8872 134.402 16.3339 134.402 18.0605C134.402 19.5772 134.017 20.9072 133.247 22.0505C132.477 23.1939 131.392 24.0805 129.992 24.7105C128.615 25.3172 126.994 25.6205 125.127 25.6205ZM146.305 25.6205C144.485 25.6205 142.875 25.2239 141.475 24.4305C140.099 23.6139 139.014 22.4939 138.22 21.0705C137.427 19.6472 137.03 18.0139 137.03 16.1705C137.03 14.3272 137.427 12.6939 138.22 11.2705C139.014 9.84721 140.099 8.73888 141.475 7.94555C142.875 7.12888 144.485 6.72055 146.305 6.72055C148.125 6.72055 149.724 7.12888 151.1 7.94555C152.5 8.73888 153.597 9.84721 154.39 11.2705C155.184 12.6939 155.58 14.3272 155.58 16.1705C155.58 18.0139 155.184 19.6472 154.39 21.0705C153.597 22.4939 152.5 23.6139 151.1 24.4305C149.724 25.2239 148.125 25.6205 146.305 25.6205ZM146.305 21.4555C147.239 21.4555 148.044 21.2455 148.72 20.8255C149.397 20.3822 149.922 19.7639 150.295 18.9705C150.669 18.1772 150.855 17.2439 150.855 16.1705C150.855 15.0972 150.669 14.1639 150.295 13.3705C149.922 12.5772 149.397 11.9705 148.72 11.5505C148.044 11.1072 147.239 10.8855 146.305 10.8855C145.372 10.8855 144.567 11.1072 143.89 11.5505C143.214 11.9705 142.689 12.5772 142.315 13.3705C141.942 14.1639 141.755 15.0972 141.755 16.1705C141.755 17.2439 141.942 18.1772 142.315 18.9705C142.689 19.7639 143.214 20.3822 143.89 20.8255C144.567 21.2455 145.372 21.4555 146.305 21.4555ZM158.892 25.0605V7.28055H163.267V11.5155L162.112 11.7605C162.532 10.7105 163.092 9.81221 163.792 9.06555C164.492 8.31888 165.308 7.74721 166.242 7.35055C167.175 6.93055 168.19 6.72055 169.287 6.72055C170.547 6.72055 171.69 7.00055 172.717 7.56055C173.767 8.09721 174.595 8.90221 175.202 9.97555C175.832 11.0489 176.147 12.3905 176.147 14.0005V25.0605H171.422V15.5055C171.422 14.5022 171.282 13.6622 171.002 12.9855C170.745 12.3089 170.36 11.7955 169.847 11.4455C169.333 11.0955 168.715 10.9205 167.992 10.9205C167.432 10.9205 166.813 11.0722 166.137 11.3755C165.46 11.6789 164.865 12.2272 164.352 13.0205C163.862 13.7905 163.617 14.9222 163.617 16.4155V25.0605H158.892ZM186.284 32.0605C183.857 32.0605 181.944 31.5939 180.544 30.6605C179.144 29.7505 178.444 28.4789 178.444 26.8455C178.444 25.7489 178.747 24.8039 179.354 24.0105C179.961 23.1939 180.836 22.5639 181.979 22.1205L184.254 23.9055C183.787 24.0922 183.414 24.3955 183.134 24.8155C182.877 25.2122 182.749 25.6439 182.749 26.1105C182.749 26.6472 182.947 27.1489 183.344 27.6155C183.741 28.1055 184.499 28.3505 185.619 28.3505H188.104C189.271 28.3505 190.122 28.1989 190.659 27.8955C191.219 27.5922 191.499 27.1605 191.499 26.6005C191.499 26.0872 191.289 25.7022 190.869 25.4455C190.449 25.1889 189.889 25.0605 189.189 25.0605H185.059C183.986 25.0605 183.029 24.8855 182.189 24.5355C181.349 24.1622 180.684 23.6605 180.194 23.0305C179.727 22.4005 179.494 21.6889 179.494 20.8955C179.494 19.9155 179.786 19.0755 180.369 18.3755C180.976 17.6522 181.816 17.0689 182.889 16.6255L185.409 18.5505C184.872 18.5505 184.441 18.7255 184.114 19.0755C183.787 19.4022 183.624 19.7289 183.624 20.0555C183.624 20.4755 183.787 20.8139 184.114 21.0705C184.464 21.3039 185.024 21.4205 185.794 21.4205H189.854C191.651 21.4205 193.086 21.8755 194.159 22.7855C195.256 23.6955 195.804 24.9089 195.804 26.4255C195.804 28.1289 195.104 29.4939 193.704 30.5205C192.304 31.5472 190.414 32.0605 188.034 32.0605H186.284ZM187.264 19.3205C185.771 19.3205 184.464 19.0522 183.344 18.5155C182.224 17.9789 181.349 17.2439 180.719 16.3105C180.089 15.3539 179.774 14.2572 179.774 13.0205C179.774 11.7839 180.089 10.6989 180.719 9.76555C181.349 8.80888 182.224 8.06221 183.344 7.52555C184.464 6.98888 185.771 6.72055 187.264 6.72055C188.757 6.72055 190.064 6.98888 191.184 7.52555C192.304 8.06221 193.179 8.80888 193.809 9.76555C194.439 10.6989 194.754 11.7839 194.754 13.0205C194.754 14.2572 194.439 15.3539 193.809 16.3105C193.179 17.2439 192.304 17.9789 191.184 18.5155C190.064 19.0522 188.757 19.3205 187.264 19.3205ZM187.264 15.6805C188.197 15.6805 188.944 15.4355 189.504 14.9455C190.087 14.4555 190.379 13.8139 190.379 13.0205C190.379 12.2272 190.087 11.5855 189.504 11.0955C188.944 10.6055 188.197 10.3605 187.264 10.3605C186.331 10.3605 185.572 10.6055 184.989 11.0955C184.429 11.5855 184.149 12.2272 184.149 13.0205C184.149 13.8139 184.429 14.4555 184.989 14.9455C185.572 15.4355 186.331 15.6805 187.264 15.6805ZM192.619 10.1155L189.679 8.89055C189.679 7.81721 189.889 6.86055 190.309 6.02055C190.729 5.15721 191.301 4.48055 192.024 3.99054C192.747 3.50055 193.552 3.25555 194.439 3.25555C194.766 3.25555 195.046 3.26721 195.279 3.29055C195.536 3.29055 195.711 3.31388 195.804 3.36055V7.24555L195.629 7.59555C195.396 7.52555 195.092 7.49055 194.719 7.49055C194.019 7.49055 193.494 7.73555 193.144 8.22555C192.794 8.71555 192.619 9.34555 192.619 10.1155Z" fill="#313F4A"/>
</svg>
